# xmcd CD database file generated by libcdaudio 0.99.6
# 
# Track frame offsets:
#       150
#       9912
#       32540
#       55170
#       81052
#       95782
#       111512
#       135157
#       155517
#       171807
# 
# Disc length: 2533 seconds
# 
# Revision: 1
# Processed by: cddbd v1.4PL0 Copyright (c) Steve Scherf et al.
# Submitted via: libcdaudio 0.99.6
# 
DISCID=7209e30a
DTITLE=Emily Saxe - Broadway To Berk'ley Square
DYEAR=1900
DGENRE=
TTITLE0=Anyone Can Whistle
TTITLE1=A Nightingale Sang In Berkeley Square
TTITLE2=How Long Has This Been Going On?
TTITLE3=That Old Black Magic
TTITLE4=Not While I'm Around
TTITLE5=Sooner Or Later (I Always Get My Man)
TTITLE6=This Masquerade
TTITLE7=The Man That Got Away
TTITLE8=Come In From The Rain
TTITLE9=How Long Has This Been Going On? (Reprise)
EXTD=
EXTT0=
EXTT1=
EXTT2=
EXTT3=
EXTT4=
EXTT5=
EXTT6=
EXTT7=
EXTT8=
EXTT9=
PLAYORDER=
